<svg xmlns="http://www.w3.org/2000/svg" width="960" height="60" viewBox="0 0 960 60"><rect width="100%" height="100%" fill="#3a2414"/><polygon points="0,-8 24,-20 24,-10 0,2" fill="#c8a273" stroke="#5a3a22" stroke-width=".8"/><polygon points="0,2 24,-10 24,0 0,12" fill="#c49a66" stroke="#5a3a22" stroke-width=".8"/><polygon points="0,12 24,0 24,10 0,22" fill="#be925d" stroke="#5a3a22" stroke-width=".8"/><polygon points="0,22 24,10 24,20 0,32" fill="#d9bf98" stroke="#5a3a22" stroke-width=".8"/><polygon points="0,32 24,20 24,30 0,42" fill="#cfae80" stroke="#5a3a22" stroke-width=".8"/><polygon points="0,42 24,30 24,40 0,52" fill="#cfae80" stroke="#5a3a22" stroke-width=".8"/><polygon points="0,52 24,40 24,50 0,62" fill="#c8a273" stroke="#5a3a22" stroke-width=".8"/><polygon points="0,62 24,50 24,60 0,72" fill="#d9bf98" stroke="#5a3a22" stroke-width=".8"/><polygon points="0,72 24,60 24,70 0,82" fill="#b98b57" stroke="#5a3a22" stroke-width=".8"/><polygon points="0,82 24,70 24,80 0,92" fill="#d9bf98" stroke="#5a3a22" stroke-width=".8"/><polygon points="24,-20 48,-8 48,2 24,-10" fill="#cfae80" stroke="#5a3a22" stroke-width=".8"/><polygon points="24,-10 48,2 48,12 24,0" fill="#be925d" stroke="#5a3a22" stroke-width=".8"/><polygon points="24,0 48,12 48,22 24,10" fill="#be925d" stroke="#5a3a22" stroke-width=".8"/><polygon points="24,10 48,22 48,32 24,20" fill="#cfae80" stroke="#5a3a22" stroke-width=".8"/><polygon points="24,20 48,32 48,42 24,30" fill="#b98b57" stroke="#5a3a22" stroke-width=".8"/><polygon points="24,30 48,42 48,52 24,40" fill="#cfae80" stroke="#5a3a22" stroke-width=".8"/><polygon points="24,40 48,52 48,62 24,50" fill="#be925d" stroke="#5a3a22" stroke-width=".8"/><polygon points="24,50 48,62 48,72 24,60" fill="#d9bf98" stroke="#5a3a22" stroke-width=".8"/><polygon points="24,60 48,72 48,82 24,70" fill="#cfae80" stroke="#5a3a22" stroke-width=".8"/><polygon points="24,70 48,82 48,92 24,80" fill="#b98b57" stroke="#5a3a22" stroke-width=".8"/><polygon points="48,-8 72,-20 72,-10 48,2" fill="#d9bf98" stroke="#5a3a22" stroke-width=".8"/><polygon points="48,2 72,-10 72,0 48,12" fill="#be925d" stroke="#5a3a22" stroke-width=".8"/><polygon points="48,12 72,0 72,10 48,22" fill="#d9bf98" stroke="#5a3a22" stroke-width=".8"/><polygon points="48,22 72,10 72,20 48,32" fill="#b98b57" stroke="#5a3a22" stroke-width=".8"/><polygon points="48,32 72,20 72,30 48,42" fill="#d9bf98" stroke="#5a3a22" stroke-width=".8"/><polygon points="48,42 72,30 72,40 48,52" fill="#c49a66" stroke="#5a3a22" stroke-width=".8"/><polygon points="48,52 72,40 72,50 48,62" fill="#d3b48a" stroke="#5a3a22" stroke-width=".8"/><polygon points="48,62 72,50 72,60 48,72" fill="#be925d" stroke="#5a3a22" stroke-width=".8"/><polygon points="48,72 72,60 72,70 48,82" fill="#c49a66" stroke="#5a3a22" stroke-width=".8"/><polygon points="48,82 72,70 72,80 48,92" fill="#cfae80" stroke="#5a3a22" stroke-width=".8"/><polygon points="72,-20 96,-8 96,2 72,-10" fill="#d3b48a" stroke="#5a3a22" stroke-width=".8"/><polygon points="72,-10 96,2 96,12 72,0" fill="#c49a66" stroke="#5a3a22" stroke-width=".8"/><polygon points="72,0 96,12 96,22 72,10" fill="#cfae80" stroke="#5a3a22" stroke-width=".8"/><polygon points="72,10 96,22 96,32 72,20" fill="#b98b57" stroke="#5a3a22" stroke-width=".8"/><polygon points="72,20 96,32 96,42 72,30" fill="#c8a273" stroke="#5a3a22" stroke-width=".8"/><polygon points="72,30 96,42 96,52 72,40" fill="#cfae80" stroke="#5a3a22" stroke-width=".8"/><polygon points="72,40 96,52 96,62 72,50" fill="#cfae80" stroke="#5a3a22" stroke-width=".8"/><polygon points="72,50 96,62 96,72 72,60" fill="#d9bf98" stroke="#5a3a22" stroke-width=".8"/><polygon points="72,60 96,72 96,82 72,70" fill="#b98b57" stroke="#5a3a22" stroke-width=".8"/><polygon points="72,70 96,82 96,92 72,80" fill="#dcc6a3" stroke="#5a3a22" stroke-width=".8"/><polygon points="96,-8 120,-20 120,-10 96,2" fill="#be925d" stroke="#5a3a22" stroke-width=".8"/><polygon points="96,2 120,-10 120,0 96,12" fill="#c8a273" stroke="#5a3a22" stroke-width=".8"/><polygon points="96,12 120,0 120,10 96,22" fill="#dcc6a3" stroke="#5a3a22" stroke-width=".8"/><polygon points="96,22 120,10 120,20 96,32" fill="#dcc6a3" stroke="#5a3a22" stroke-width=".8"/><polygon points="96,32 120,20 120,30 96,42" fill="#c8a273" stroke="#5a3a22" stroke-width=".8"/><polygon points="96,42 120,30 120,40 96,52" fill="#d3b48a" stroke="#5a3a22" stroke-width=".8"/><polygon points="96,52 120,40 120,50 96,62" fill="#b98b57" stroke="#5a3a22" stroke-width=".8"/><polygon points="96,62 120,50 120,60 96,72" fill="#c49a66" stroke="#5a3a22" stroke-width=".8"/><polygon points="96,72 120,60 120,70 96,82" fill="#b98b57" stroke="#5a3a22" stroke-width=".8"/><polygon points="96,82 120,70 120,80 96,92" fill="#cfae80" stroke="#5a3a22" stroke-width=".8"/><polygon points="120,-20 144,-8 144,2 120,-10" fill="#d3b48a" stroke="#5a3a22" stroke-width=".8"/><polygon points="120,-10 144,2 144,12 120,0" fill="#dcc6a3" stroke="#5a3a22" stroke-width=".8"/><polygon points="120,0 144,12 144,22 120,10" fill="#c8a273" stroke="#5a3a22" stroke-width=".8"/><polygon points="120,10 144,22 144,32 120,20" fill="#dcc6a3" stroke="#5a3a22" stroke-width=".8"/><polygon points="120,20 144,32 144,42 120,30" fill="#d3b48a" stroke="#5a3a22" stroke-width=".8"/><polygon points="120,30 144,42 144,52 120,40" fill="#cfae80" stroke="#5a3a22" stroke-width=".8"/><polygon points="120,40 144,52 144,62 120,50" fill="#cfae80" stroke="#5a3a22" stroke-width=".8"/><polygon points="120,50 144,62 144,72 120,60" fill="#be925d" stroke="#5a3a22" stroke-width=".8"/><polygon points="120,60 144,72 144,82 120,70" fill="#c49a66" stroke="#5a3a22" stroke-width=".8"/><polygon points="120,70 144,82 144,92 120,80" fill="#c8a273" stroke="#5a3a22" stroke-width=".8"/><polygon points="144,-8 168,-20 168,-10 144,2" fill="#c49a66" stroke="#5a3a22" stroke-width=".8"/><polygon points="144,2 168,-10 168,0 144,12" fill="#dcc6a3" stroke="#5a3a22" stroke-width=".8"/><polygon points="144,12 168,0 168,10 144,22" fill="#be925d" stroke="#5a3a22" stroke-width=".8"/><polygon points="144,22 168,10 168,20 144,32" fill="#d9bf98" stroke="#5a3a22" stroke-width=".8"/><polygon points="144,32 168,20 168,30 144,42" fill="#cfae80" stroke="#5a3a22" stroke-width=".8"/><polygon points="144,42 168,30 168,40 144,52" fill="#c8a273" stroke="#5a3a22" stroke-width=".8"/><polygon points="144,52 168,40 168,50 144,62" fill="#c8a273" stroke="#5a3a22" stroke-width=".8"/><polygon points="144,62 168,50 168,60 144,72" fill="#c8a273" stroke="#5a3a22" stroke-width=".8"/><polygon points="144,72 168,60 168,70 144,82" fill="#dcc6a3" stroke="#5a3a22" stroke-width=".8"/><polygon points="144,82 168,70 168,80 144,92" fill="#dcc6a3" stroke="#5a3a22" stroke-width=".8"/><polygon points="168,-20 192,-8 192,2 168,-10" fill="#cfae80" stroke="#5a3a22" stroke-width=".8"/><polygon points="168,-10 192,2 192,12 168,0" fill="#cfae80" stroke="#5a3a22" stroke-width=".8"/><polygon points="168,0 192,12 192,22 168,10" fill="#d3b48a" stroke="#5a3a22" stroke-width=".8"/><polygon points="168,10 192,22 192,32 168,20" fill="#dcc6a3" stroke="#5a3a22" stroke-width=".8"/><polygon points="168,20 192,32 192,42 168,30" fill="#cfae80" stroke="#5a3a22" stroke-width=".8"/><polygon points="168,30 192,42 192,52 168,40" fill="#d9bf98" stroke="#5a3a22" stroke-width=".8"/><polygon points="168,40 192,52 192,62 168,50" fill="#d3b48a" stroke="#5a3a22" stroke-width=".8"/><polygon points="168,50 192,62 192,72 168,60" fill="#dcc6a3" stroke="#5a3a22" stroke-width=".8"/><polygon points="168,60 192,72 192,82 168,70" fill="#d3b48a" stroke="#5a3a22" stroke-width=".8"/><polygon points="168,70 192,82 192,92 168,80" fill="#be925d" stroke="#5a3a22" stroke-width=".8"/><polygon points="192,-8 216,-20 216,-10 192,2" fill="#c8a273" stroke="#5a3a22" stroke-width=".8"/><polygon points="192,2 216,-10 216,0 192,12" fill="#d9bf98" stroke="#5a3a22" stroke-width=".8"/><polygon points="192,12 216,0 216,10 192,22" fill="#dcc6a3" stroke="#5a3a22" stroke-width=".8"/><polygon points="192,22 216,10 216,20 192,32" fill="#c8a273" stroke="#5a3a22" stroke-width=".8"/><polygon points="192,32 216,20 216,30 192,42" fill="#c49a66" stroke="#5a3a22" stroke-width=".8"/><polygon points="192,42 216,30 216,40 192,52" fill="#cfae80" stroke="#5a3a22" stroke-width=".8"/><polygon points="192,52 216,40 216,50 192,62" fill="#dcc6a3" stroke="#5a3a22" stroke-width=".8"/><polygon points="192,62 216,50 216,60 192,72" fill="#d9bf98" stroke="#5a3a22" stroke-width=".8"/><polygon points="192,72 216,60 216,70 192,82" fill="#b98b57" stroke="#5a3a22" stroke-width=".8"/><polygon points="192,82 216,70 216,80 192,92" fill="#d3b48a" stroke="#5a3a22" stroke-width=".8"/><polygon points="216,-20 240,-8 240,2 216,-10" fill="#c49a66" stroke="#5a3a22" stroke-width=".8"/><polygon points="216,-10 240,2 240,12 216,0" fill="#b98b57" stroke="#5a3a22" stroke-width=".8"/><polygon points="216,0 240,12 240,22 216,10" fill="#be925d" stroke="#5a3a22" stroke-width=".8"/><polygon points="216,10 240,22 240,32 216,20" fill="#be925d" stroke="#5a3a22" stroke-width=".8"/><polygon points="216,20 240,32 240,42 216,30" fill="#dcc6a3" stroke="#5a3a22" stroke-width=".8"/><polygon points="216,30 240,42 240,52 216,40" fill="#cfae80" stroke="#5a3a22" stroke-width=".8"/><polygon points="216,40 240,52 240,62 216,50" fill="#c49a66" stroke="#5a3a22" stroke-width=".8"/><polygon points="216,50 240,62 240,72 216,60" fill="#dcc6a3" stroke="#5a3a22" stroke-width=".8"/><polygon points="216,60 240,72 240,82 216,70" fill="#be925d" stroke="#5a3a22" stroke-width=".8"/><polygon points="216,70 240,82 240,92 216,80" fill="#d3b48a" stroke="#5a3a22" stroke-width=".8"/><polygon points="240,-8 264,-20 264,-10 240,2" fill="#c49a66" stroke="#5a3a22" stroke-width=".8"/><polygon points="240,2 264,-10 264,0 240,12" fill="#be925d" stroke="#5a3a22" stroke-width=".8"/><polygon points="240,12 264,0 264,10 240,22" fill="#d3b48a" stroke="#5a3a22" stroke-width=".8"/><polygon points="240,22 264,10 264,20 240,32" fill="#be925d" stroke="#5a3a22" stroke-width=".8"/><polygon points="240,32 264,20 264,30 240,42" fill="#c8a273" stroke="#5a3a22" stroke-width=".8"/><polygon points="240,42 264,30 264,40 240,52" fill="#be925d" stroke="#5a3a22" stroke-width=".8"/><polygon points="240,52 264,40 264,50 240,62" fill="#b98b57" stroke="#5a3a22" stroke-width=".8"/><polygon points="240,62 264,50 264,60 240,72" fill="#c49a66" stroke="#5a3a22" stroke-width=".8"/><polygon points="240,72 264,60 264,70 240,82" fill="#cfae80" stroke="#5a3a22" stroke-width=".8"/><polygon points="240,82 264,70 264,80 240,92" fill="#c49a66" stroke="#5a3a22" stroke-width=".8"/><polygon points="264,-20 288,-8 288,2 264,-10" fill="#c49a66" stroke="#5a3a22" stroke-width=".8"/><polygon points="264,-10 288,2 288,12 264,0" fill="#b98b57" stroke="#5a3a22" stroke-width=".8"/><polygon points="264,0 288,12 288,22 264,10" fill="#b98b57" stroke="#5a3a22" stroke-width=".8"/><polygon points="264,10 288,22 288,32 264,20" fill="#d9bf98" stroke="#5a3a22" stroke-width=".8"/><polygon points="264,20 288,32 288,42 264,30" fill="#dcc6a3" stroke="#5a3a22" stroke-width=".8"/><polygon points="264,30 288,42 288,52 264,40" fill="#c49a66" stroke="#5a3a22" stroke-width=".8"/><polygon points="264,40 288,52 288,62 264,50" fill="#d3b48a" stroke="#5a3a22" stroke-width=".8"/><polygon points="264,50 288,62 288,72 264,60" fill="#d3b48a" stroke="#5a3a22" stroke-width=".8"/><polygon points="264,60 288,72 288,82 264,70" fill="#d9bf98" stroke="#5a3a22" stroke-width=".8"/><polygon points="264,70 288,82 288,92 264,80" fill="#c49a66" stroke="#5a3a22" stroke-width=".8"/><polygon points="288,-8 312,-20 312,-10 288,2" fill="#be925d" stroke="#5a3a22" stroke-width=".8"/><polygon points="288,2 312,-10 312,0 288,12" fill="#c8a273" stroke="#5a3a22" stroke-width=".8"/><polygon points="288,12 312,0 312,10 288,22" fill="#c8a273" stroke="#5a3a22" stroke-width=".8"/><polygon points="288,22 312,10 312,20 288,32" fill="#c49a66" stroke="#5a3a22" stroke-width=".8"/><polygon points="288,32 312,20 312,30 288,42" fill="#d9bf98" stroke="#5a3a22" stroke-width=".8"/><polygon points="288,42 312,30 312,40 288,52" fill="#dcc6a3" stroke="#5a3a22" stroke-width=".8"/><polygon points="288,52 312,40 312,50 288,62" fill="#be925d" stroke="#5a3a22" stroke-width=".8"/><polygon points="288,62 312,50 312,60 288,72" fill="#be925d" stroke="#5a3a22" stroke-width=".8"/><polygon points="288,72 312,60 312,70 288,82" fill="#be925d" stroke="#5a3a22" stroke-width=".8"/><polygon points="288,82 312,70 312,80 288,92" fill="#be925d" stroke="#5a3a22" stroke-width=".8"/><polygon points="312,-20 336,-8 336,2 312,-10" fill="#cfae80" stroke="#5a3a22" stroke-width=".8"/><polygon points="312,-10 336,2 336,12 312,0" fill="#dcc6a3" stroke="#5a3a22" stroke-width=".8"/><polygon points="312,0 336,12 336,22 312,10" fill="#be925d" stroke="#5a3a22" stroke-width=".8"/><polygon points="312,10 336,22 336,32 312,20" fill="#d9bf98" stroke="#5a3a22" stroke-width=".8"/><polygon points="312,20 336,32 336,42 312,30" fill="#b98b57" stroke="#5a3a22" stroke-width=".8"/><polygon points="312,30 336,42 336,52 312,40" fill="#cfae80" stroke="#5a3a22" stroke-width=".8"/><polygon points="312,40 336,52 336,62 312,50" fill="#b98b57" stroke="#5a3a22" stroke-width=".8"/><polygon points="312,50 336,62 336,72 312,60" fill="#dcc6a3" stroke="#5a3a22" stroke-width=".8"/><polygon points="312,60 336,72 336,82 312,70" fill="#c49a66" stroke="#5a3a22" stroke-width=".8"/><polygon points="312,70 336,82 336,92 312,80" fill="#cfae80" stroke="#5a3a22" stroke-width=".8"/><polygon points="336,-8 360,-20 360,-10 336,2" fill="#c8a273" stroke="#5a3a22" stroke-width=".8"/><polygon points="336,2 360,-10 360,0 336,12" fill="#d9bf98" stroke="#5a3a22" stroke-width=".8"/><polygon points="336,12 360,0 360,10 336,22" fill="#cfae80" stroke="#5a3a22" stroke-width=".8"/><polygon points="336,22 360,10 360,20 336,32" fill="#d9bf98" stroke="#5a3a22" stroke-width=".8"/><polygon points="336,32 360,20 360,30 336,42" fill="#c49a66" stroke="#5a3a22" stroke-width=".8"/><polygon points="336,42 360,30 360,40 336,52" fill="#cfae80" stroke="#5a3a22" stroke-width=".8"/><polygon points="336,52 360,40 360,50 336,62" fill="#c8a273" stroke="#5a3a22" stroke-width=".8"/><polygon points="336,62 360,50 360,60 336,72" fill="#d9bf98" stroke="#5a3a22" stroke-width=".8"/><polygon points="336,72 360,60 360,70 336,82" fill="#cfae80" stroke="#5a3a22" stroke-width=".8"/><polygon points="336,82 360,70 360,80 336,92" fill="#b98b57" stroke="#5a3a22" stroke-width=".8"/><polygon points="360,-20 384,-8 384,2 360,-10" fill="#be925d" stroke="#5a3a22" stroke-width=".8"/><polygon points="360,-10 384,2 384,12 360,0" fill="#c49a66" stroke="#5a3a22" stroke-width=".8"/><polygon points="360,0 384,12 384,22 360,10" fill="#d3b48a" stroke="#5a3a22" stroke-width=".8"/><polygon points="360,10 384,22 384,32 360,20" fill="#c8a273" stroke="#5a3a22" stroke-width=".8"/><polygon points="360,20 384,32 384,42 360,30" fill="#c8a273" stroke="#5a3a22" stroke-width=".8"/><polygon points="360,30 384,42 384,52 360,40" fill="#dcc6a3" stroke="#5a3a22" stroke-width=".8"/><polygon points="360,40 384,52 384,62 360,50" fill="#cfae80" stroke="#5a3a22" stroke-width=".8"/><polygon points="360,50 384,62 384,72 360,60" fill="#cfae80" stroke="#5a3a22" stroke-width=".8"/><polygon points="360,60 384,72 384,82 360,70" fill="#dcc6a3" stroke="#5a3a22" stroke-width=".8"/><polygon points="360,70 384,82 384,92 360,80" fill="#dcc6a3" stroke="#5a3a22" stroke-width=".8"/><polygon points="384,-8 408,-20 408,-10 384,2" fill="#dcc6a3" stroke="#5a3a22" stroke-width=".8"/><polygon points="384,2 408,-10 408,0 384,12" fill="#dcc6a3" stroke="#5a3a22" stroke-width=".8"/><polygon points="384,12 408,0 408,10 384,22" fill="#d3b48a" stroke="#5a3a22" stroke-width=".8"/><polygon points="384,22 408,10 408,20 384,32" fill="#cfae80" stroke="#5a3a22" stroke-width=".8"/><polygon points="384,32 408,20 408,30 384,42" fill="#c49a66" stroke="#5a3a22" stroke-width=".8"/><polygon points="384,42 408,30 408,40 384,52" fill="#cfae80" stroke="#5a3a22" stroke-width=".8"/><polygon points="384,52 408,40 408,50 384,62" fill="#c8a273" stroke="#5a3a22" stroke-width=".8"/><polygon points="384,62 408,50 408,60 384,72" fill="#d3b48a" stroke="#5a3a22" stroke-width=".8"/><polygon points="384,72 408,60 408,70 384,82" fill="#dcc6a3" stroke="#5a3a22" stroke-width=".8"/><polygon points="384,82 408,70 408,80 384,92" fill="#c49a66" stroke="#5a3a22" stroke-width=".8"/><polygon points="408,-20 432,-8 432,2 408,-10" fill="#d9bf98" stroke="#5a3a22" stroke-width=".8"/><polygon points="408,-10 432,2 432,12 408,0" fill="#b98b57" stroke="#5a3a22" stroke-width=".8"/><polygon points="408,0 432,12 432,22 408,10" fill="#c8a273" stroke="#5a3a22" stroke-width=".8"/><polygon points="408,10 432,22 432,32 408,20" fill="#c49a66" stroke="#5a3a22" stroke-width=".8"/><polygon points="408,20 432,32 432,42 408,30" fill="#d9bf98" stroke="#5a3a22" stroke-width=".8"/><polygon points="408,30 432,42 432,52 408,40" fill="#d3b48a" stroke="#5a3a22" stroke-width=".8"/><polygon points="408,40 432,52 432,62 408,50" fill="#cfae80" stroke="#5a3a22" stroke-width=".8"/><polygon points="408,50 432,62 432,72 408,60" fill="#d3b48a" stroke="#5a3a22" stroke-width=".8"/><polygon points="408,60 432,72 432,82 408,70" fill="#c8a273" stroke="#5a3a22" stroke-width=".8"/><polygon points="408,70 432,82 432,92 408,80" fill="#c49a66" stroke="#5a3a22" stroke-width=".8"/><polygon points="432,-8 456,-20 456,-10 432,2" fill="#c8a273" stroke="#5a3a22" stroke-width=".8"/><polygon points="432,2 456,-10 456,0 432,12" fill="#b98b57" stroke="#5a3a22" stroke-width=".8"/><polygon points="432,12 456,0 456,10 432,22" fill="#c8a273" stroke="#5a3a22" stroke-width=".8"/><polygon points="432,22 456,10 456,20 432,32" fill="#b98b57" stroke="#5a3a22" stroke-width=".8"/><polygon points="432,32 456,20 456,30 432,42" fill="#b98b57" stroke="#5a3a22" stroke-width=".8"/><polygon points="432,42 456,30 456,40 432,52" fill="#b98b57" stroke="#5a3a22" stroke-width=".8"/><polygon points="432,52 456,40 456,50 432,62" fill="#be925d" stroke="#5a3a22" stroke-width=".8"/><polygon points="432,62 456,50 456,60 432,72" fill="#b98b57" stroke="#5a3a22" stroke-width=".8"/><polygon points="432,72 456,60 456,70 432,82" fill="#b98b57" stroke="#5a3a22" stroke-width=".8"/><polygon points="432,82 456,70 456,80 432,92" fill="#dcc6a3" stroke="#5a3a22" stroke-width=".8"/><polygon points="456,-20 480,-8 480,2 456,-10" fill="#c8a273" stroke="#5a3a22" stroke-width=".8"/><polygon points="456,-10 480,2 480,12 456,0" fill="#d9bf98" stroke="#5a3a22" stroke-width=".8"/><polygon points="456,0 480,12 480,22 456,10" fill="#d9bf98" stroke="#5a3a22" stroke-width=".8"/><polygon points="456,10 480,22 480,32 456,20" fill="#d3b48a" stroke="#5a3a22" stroke-width=".8"/><polygon points="456,20 480,32 480,42 456,30" fill="#dcc6a3" stroke="#5a3a22" stroke-width=".8"/><polygon points="456,30 480,42 480,52 456,40" fill="#d3b48a" stroke="#5a3a22" stroke-width=".8"/><polygon points="456,40 480,52 480,62 456,50" fill="#b98b57" stroke="#5a3a22" stroke-width=".8"/><polygon points="456,50 480,62 480,72 456,60" fill="#c8a273" stroke="#5a3a22" stroke-width=".8"/><polygon points="456,60 480,72 480,82 456,70" fill="#dcc6a3" stroke="#5a3a22" stroke-width=".8"/><polygon points="456,70 480,82 480,92 456,80" fill="#c8a273" stroke="#5a3a22" stroke-width=".8"/><polygon points="480,-8 504,-20 504,-10 480,2" fill="#c8a273" stroke="#5a3a22" stroke-width=".8"/><polygon points="480,2 504,-10 504,0 480,12" fill="#cfae80" stroke="#5a3a22" stroke-width=".8"/><polygon points="480,12 504,0 504,10 480,22" fill="#b98b57" stroke="#5a3a22" stroke-width=".8"/><polygon points="480,22 504,10 504,20 480,32" fill="#cfae80" stroke="#5a3a22" stroke-width=".8"/><polygon points="480,32 504,20 504,30 480,42" fill="#b98b57" stroke="#5a3a22" stroke-width=".8"/><polygon points="480,42 504,30 504,40 480,52" fill="#dcc6a3" stroke="#5a3a22" stroke-width=".8"/><polygon points="480,52 504,40 504,50 480,62" fill="#b98b57" stroke="#5a3a22" stroke-width=".8"/><polygon points="480,62 504,50 504,60 480,72" fill="#c8a273" stroke="#5a3a22" stroke-width=".8"/><polygon points="480,72 504,60 504,70 480,82" fill="#b98b57" stroke="#5a3a22" stroke-width=".8"/><polygon points="480,82 504,70 504,80 480,92" fill="#dcc6a3" stroke="#5a3a22" stroke-width=".8"/><polygon points="504,-20 528,-8 528,2 504,-10" fill="#d9bf98" stroke="#5a3a22" stroke-width=".8"/><polygon points="504,-10 528,2 528,12 504,0" fill="#dcc6a3" stroke="#5a3a22" stroke-width=".8"/><polygon points="504,0 528,12 528,22 504,10" fill="#c8a273" stroke="#5a3a22" stroke-width=".8"/><polygon points="504,10 528,22 528,32 504,20" fill="#cfae80" stroke="#5a3a22" stroke-width=".8"/><polygon points="504,20 528,32 528,42 504,30" fill="#cfae80" stroke="#5a3a22" stroke-width=".8"/><polygon points="504,30 528,42 528,52 504,40" fill="#be925d" stroke="#5a3a22" stroke-width=".8"/><polygon points="504,40 528,52 528,62 504,50" fill="#b98b57" stroke="#5a3a22" stroke-width=".8"/><polygon points="504,50 528,62 528,72 504,60" fill="#dcc6a3" stroke="#5a3a22" stroke-width=".8"/><polygon points="504,60 528,72 528,82 504,70" fill="#c49a66" stroke="#5a3a22" stroke-width=".8"/><polygon points="504,70 528,82 528,92 504,80" fill="#be925d" stroke="#5a3a22" stroke-width=".8"/><polygon points="528,-8 552,-20 552,-10 528,2" fill="#c8a273" stroke="#5a3a22" stroke-width=".8"/><polygon points="528,2 552,-10 552,0 528,12" fill="#cfae80" stroke="#5a3a22" stroke-width=".8"/><polygon points="528,12 552,0 552,10 528,22" fill="#be925d" stroke="#5a3a22" stroke-width=".8"/><polygon points="528,22 552,10 552,20 528,32" fill="#dcc6a3" stroke="#5a3a22" stroke-width=".8"/><polygon points="528,32 552,20 552,30 528,42" fill="#be925d" stroke="#5a3a22" stroke-width=".8"/><polygon points="528,42 552,30 552,40 528,52" fill="#cfae80" stroke="#5a3a22" stroke-width=".8"/><polygon points="528,52 552,40 552,50 528,62" fill="#c49a66" stroke="#5a3a22" stroke-width=".8"/><polygon points="528,62 552,50 552,60 528,72" fill="#c49a66" stroke="#5a3a22" stroke-width=".8"/><polygon points="528,72 552,60 552,70 528,82" fill="#c49a66" stroke="#5a3a22" stroke-width=".8"/><polygon points="528,82 552,70 552,80 528,92" fill="#d9bf98" stroke="#5a3a22" stroke-width=".8"/><polygon points="552,-20 576,-8 576,2 552,-10" fill="#c49a66" stroke="#5a3a22" stroke-width=".8"/><polygon points="552,-10 576,2 576,12 552,0" fill="#dcc6a3" stroke="#5a3a22" stroke-width=".8"/><polygon points="552,0 576,12 576,22 552,10" fill="#c49a66" stroke="#5a3a22" stroke-width=".8"/><polygon points="552,10 576,22 576,32 552,20" fill="#dcc6a3" stroke="#5a3a22" stroke-width=".8"/><polygon points="552,20 576,32 576,42 552,30" fill="#c8a273" stroke="#5a3a22" stroke-width=".8"/><polygon points="552,30 576,42 576,52 552,40" fill="#c49a66" stroke="#5a3a22" stroke-width=".8"/><polygon points="552,40 576,52 576,62 552,50" fill="#c49a66" stroke="#5a3a22" stroke-width=".8"/><polygon points="552,50 576,62 576,72 552,60" fill="#d9bf98" stroke="#5a3a22" stroke-width=".8"/><polygon points="552,60 576,72 576,82 552,70" fill="#d9bf98" stroke="#5a3a22" stroke-width=".8"/><polygon points="552,70 576,82 576,92 552,80" fill="#cfae80" stroke="#5a3a22" stroke-width=".8"/><polygon points="576,-8 600,-20 600,-10 576,2" fill="#c49a66" stroke="#5a3a22" stroke-width=".8"/><polygon points="576,2 600,-10 600,0 576,12" fill="#be925d" stroke="#5a3a22" stroke-width=".8"/><polygon points="576,12 600,0 600,10 576,22" fill="#b98b57" stroke="#5a3a22" stroke-width=".8"/><polygon points="576,22 600,10 600,20 576,32" fill="#b98b57" stroke="#5a3a22" stroke-width=".8"/><polygon points="576,32 600,20 600,30 576,42" fill="#d9bf98" stroke="#5a3a22" stroke-width=".8"/><polygon points="576,42 600,30 600,40 576,52" fill="#d3b48a" stroke="#5a3a22" stroke-width=".8"/><polygon points="576,52 600,40 600,50 576,62" fill="#b98b57" stroke="#5a3a22" stroke-width=".8"/><polygon points="576,62 600,50 600,60 576,72" fill="#d3b48a" stroke="#5a3a22" stroke-width=".8"/><polygon points="576,72 600,60 600,70 576,82" fill="#b98b57" stroke="#5a3a22" stroke-width=".8"/><polygon points="576,82 600,70 600,80 576,92" fill="#c8a273" stroke="#5a3a22" stroke-width=".8"/><polygon points="600,-20 624,-8 624,2 600,-10" fill="#d3b48a" stroke="#5a3a22" stroke-width=".8"/><polygon points="600,-10 624,2 624,12 600,0" fill="#be925d" stroke="#5a3a22" stroke-width=".8"/><polygon points="600,0 624,12 624,22 600,10" fill="#c49a66" stroke="#5a3a22" stroke-width=".8"/><polygon points="600,10 624,22 624,32 600,20" fill="#d9bf98" stroke="#5a3a22" stroke-width=".8"/><polygon points="600,20 624,32 624,42 600,30" fill="#c8a273" stroke="#5a3a22" stroke-width=".8"/><polygon points="600,30 624,42 624,52 600,40" fill="#dcc6a3" stroke="#5a3a22" stroke-width=".8"/><polygon points="600,40 624,52 624,62 600,50" fill="#be925d" stroke="#5a3a22" stroke-width=".8"/><polygon points="600,50 624,62 624,72 600,60" fill="#c49a66" stroke="#5a3a22" stroke-width=".8"/><polygon points="600,60 624,72 624,82 600,70" fill="#c49a66" stroke="#5a3a22" stroke-width=".8"/><polygon points="600,70 624,82 624,92 600,80" fill="#d9bf98" stroke="#5a3a22" stroke-width=".8"/><polygon points="624,-8 648,-20 648,-10 624,2" fill="#dcc6a3" stroke="#5a3a22" stroke-width=".8"/><polygon points="624,2 648,-10 648,0 624,12" fill="#c49a66" stroke="#5a3a22" stroke-width=".8"/><polygon points="624,12 648,0 648,10 624,22" fill="#d9bf98" stroke="#5a3a22" stroke-width=".8"/><polygon points="624,22 648,10 648,20 624,32" fill="#c49a66" stroke="#5a3a22" stroke-width=".8"/><polygon points="624,32 648,20 648,30 624,42" fill="#c49a66" stroke="#5a3a22" stroke-width=".8"/><polygon points="624,42 648,30 648,40 624,52" fill="#c49a66" stroke="#5a3a22" stroke-width=".8"/><polygon points="624,52 648,40 648,50 624,62" fill="#dcc6a3" stroke="#5a3a22" stroke-width=".8"/><polygon points="624,62 648,50 648,60 624,72" fill="#cfae80" stroke="#5a3a22" stroke-width=".8"/><polygon points="624,72 648,60 648,70 624,82" fill="#d9bf98" stroke="#5a3a22" stroke-width=".8"/><polygon points="624,82 648,70 648,80 624,92" fill="#c8a273" stroke="#5a3a22" stroke-width=".8"/><polygon points="648,-20 672,-8 672,2 648,-10" fill="#dcc6a3" stroke="#5a3a22" stroke-width=".8"/><polygon points="648,-10 672,2 672,12 648,0" fill="#cfae80" stroke="#5a3a22" stroke-width=".8"/><polygon points="648,0 672,12 672,22 648,10" fill="#d9bf98" stroke="#5a3a22" stroke-width=".8"/><polygon points="648,10 672,22 672,32 648,20" fill="#b98b57" stroke="#5a3a22" stroke-width=".8"/><polygon points="648,20 672,32 672,42 648,30" fill="#b98b57" stroke="#5a3a22" stroke-width=".8"/><polygon points="648,30 672,42 672,52 648,40" fill="#d3b48a" stroke="#5a3a22" stroke-width=".8"/><polygon points="648,40 672,52 672,62 648,50" fill="#d9bf98" stroke="#5a3a22" stroke-width=".8"/><polygon points="648,50 672,62 672,72 648,60" fill="#cfae80" stroke="#5a3a22" stroke-width=".8"/><polygon points="648,60 672,72 672,82 648,70" fill="#dcc6a3" stroke="#5a3a22" stroke-width=".8"/><polygon points="648,70 672,82 672,92 648,80" fill="#d9bf98" stroke="#5a3a22" stroke-width=".8"/><polygon points="672,-8 696,-20 696,-10 672,2" fill="#cfae80" stroke="#5a3a22" stroke-width=".8"/><polygon points="672,2 696,-10 696,0 672,12" fill="#dcc6a3" stroke="#5a3a22" stroke-width=".8"/><polygon points="672,12 696,0 696,10 672,22" fill="#c8a273" stroke="#5a3a22" stroke-width=".8"/><polygon points="672,22 696,10 696,20 672,32" fill="#b98b57" stroke="#5a3a22" stroke-width=".8"/><polygon points="672,32 696,20 696,30 672,42" fill="#d3b48a" stroke="#5a3a22" stroke-width=".8"/><polygon points="672,42 696,30 696,40 672,52" fill="#dcc6a3" stroke="#5a3a22" stroke-width=".8"/><polygon points="672,52 696,40 696,50 672,62" fill="#dcc6a3" stroke="#5a3a22" stroke-width=".8"/><polygon points="672,62 696,50 696,60 672,72" fill="#b98b57" stroke="#5a3a22" stroke-width=".8"/><polygon points="672,72 696,60 696,70 672,82" fill="#d3b48a" stroke="#5a3a22" stroke-width=".8"/><polygon points="672,82 696,70 696,80 672,92" fill="#b98b57" stroke="#5a3a22" stroke-width=".8"/><polygon points="696,-20 720,-8 720,2 696,-10" fill="#dcc6a3" stroke="#5a3a22" stroke-width=".8"/><polygon points="696,-10 720,2 720,12 696,0" fill="#c49a66" stroke="#5a3a22" stroke-width=".8"/><polygon points="696,0 720,12 720,22 696,10" fill="#be925d" stroke="#5a3a22" stroke-width=".8"/><polygon points="696,10 720,22 720,32 696,20" fill="#cfae80" stroke="#5a3a22" stroke-width=".8"/><polygon points="696,20 720,32 720,42 696,30" fill="#be925d" stroke="#5a3a22" stroke-width=".8"/><polygon points="696,30 720,42 720,52 696,40" fill="#dcc6a3" stroke="#5a3a22" stroke-width=".8"/><polygon points="696,40 720,52 720,62 696,50" fill="#c8a273" stroke="#5a3a22" stroke-width=".8"/><polygon points="696,50 720,62 720,72 696,60" fill="#cfae80" stroke="#5a3a22" stroke-width=".8"/><polygon points="696,60 720,72 720,82 696,70" fill="#b98b57" stroke="#5a3a22" stroke-width=".8"/><polygon points="696,70 720,82 720,92 696,80" fill="#be925d" stroke="#5a3a22" stroke-width=".8"/><polygon points="720,-8 744,-20 744,-10 720,2" fill="#cfae80" stroke="#5a3a22" stroke-width=".8"/><polygon points="720,2 744,-10 744,0 720,12" fill="#b98b57" stroke="#5a3a22" stroke-width=".8"/><polygon points="720,12 744,0 744,10 720,22" fill="#d3b48a" stroke="#5a3a22" stroke-width=".8"/><polygon points="720,22 744,10 744,20 720,32" fill="#cfae80" stroke="#5a3a22" stroke-width=".8"/><polygon points="720,32 744,20 744,30 720,42" fill="#c49a66" stroke="#5a3a22" stroke-width=".8"/><polygon points="720,42 744,30 744,40 720,52" fill="#c8a273" stroke="#5a3a22" stroke-width=".8"/><polygon points="720,52 744,40 744,50 720,62" fill="#c49a66" stroke="#5a3a22" stroke-width=".8"/><polygon points="720,62 744,50 744,60 720,72" fill="#d3b48a" stroke="#5a3a22" stroke-width=".8"/><polygon points="720,72 744,60 744,70 720,82" fill="#c49a66" stroke="#5a3a22" stroke-width=".8"/><polygon points="720,82 744,70 744,80 720,92" fill="#dcc6a3" stroke="#5a3a22" stroke-width=".8"/><polygon points="744,-20 768,-8 768,2 744,-10" fill="#b98b57" stroke="#5a3a22" stroke-width=".8"/><polygon points="744,-10 768,2 768,12 744,0" fill="#cfae80" stroke="#5a3a22" stroke-width=".8"/><polygon points="744,0 768,12 768,22 744,10" fill="#be925d" stroke="#5a3a22" stroke-width=".8"/><polygon points="744,10 768,22 768,32 744,20" fill="#dcc6a3" stroke="#5a3a22" stroke-width=".8"/><polygon points="744,20 768,32 768,42 744,30" fill="#c49a66" stroke="#5a3a22" stroke-width=".8"/><polygon points="744,30 768,42 768,52 744,40" fill="#b98b57" stroke="#5a3a22" stroke-width=".8"/><polygon points="744,40 768,52 768,62 744,50" fill="#c49a66" stroke="#5a3a22" stroke-width=".8"/><polygon points="744,50 768,62 768,72 744,60" fill="#be925d" stroke="#5a3a22" stroke-width=".8"/><polygon points="744,60 768,72 768,82 744,70" fill="#be925d" stroke="#5a3a22" stroke-width=".8"/><polygon points="744,70 768,82 768,92 744,80" fill="#c8a273" stroke="#5a3a22" stroke-width=".8"/><polygon points="768,-8 792,-20 792,-10 768,2" fill="#be925d" stroke="#5a3a22" stroke-width=".8"/><polygon points="768,2 792,-10 792,0 768,12" fill="#b98b57" stroke="#5a3a22" stroke-width=".8"/><polygon points="768,12 792,0 792,10 768,22" fill="#c8a273" stroke="#5a3a22" stroke-width=".8"/><polygon points="768,22 792,10 792,20 768,32" fill="#c8a273" stroke="#5a3a22" stroke-width=".8"/><polygon points="768,32 792,20 792,30 768,42" fill="#cfae80" stroke="#5a3a22" stroke-width=".8"/><polygon points="768,42 792,30 792,40 768,52" fill="#c8a273" stroke="#5a3a22" stroke-width=".8"/><polygon points="768,52 792,40 792,50 768,62" fill="#d9bf98" stroke="#5a3a22" stroke-width=".8"/><polygon points="768,62 792,50 792,60 768,72" fill="#c8a273" stroke="#5a3a22" stroke-width=".8"/><polygon points="768,72 792,60 792,70 768,82" fill="#dcc6a3" stroke="#5a3a22" stroke-width=".8"/><polygon points="768,82 792,70 792,80 768,92" fill="#dcc6a3" stroke="#5a3a22" stroke-width=".8"/><polygon points="792,-20 816,-8 816,2 792,-10" fill="#d9bf98" stroke="#5a3a22" stroke-width=".8"/><polygon points="792,-10 816,2 816,12 792,0" fill="#be925d" stroke="#5a3a22" stroke-width=".8"/><polygon points="792,0 816,12 816,22 792,10" fill="#c8a273" stroke="#5a3a22" stroke-width=".8"/><polygon points="792,10 816,22 816,32 792,20" fill="#d3b48a" stroke="#5a3a22" stroke-width=".8"/><polygon points="792,20 816,32 816,42 792,30" fill="#cfae80" stroke="#5a3a22" stroke-width=".8"/><polygon points="792,30 816,42 816,52 792,40" fill="#cfae80" stroke="#5a3a22" stroke-width=".8"/><polygon points="792,40 816,52 816,62 792,50" fill="#b98b57" stroke="#5a3a22" stroke-width=".8"/><polygon points="792,50 816,62 816,72 792,60" fill="#cfae80" stroke="#5a3a22" stroke-width=".8"/><polygon points="792,60 816,72 816,82 792,70" fill="#cfae80" stroke="#5a3a22" stroke-width=".8"/><polygon points="792,70 816,82 816,92 792,80" fill="#d3b48a" stroke="#5a3a22" stroke-width=".8"/><polygon points="816,-8 840,-20 840,-10 816,2" fill="#d3b48a" stroke="#5a3a22" stroke-width=".8"/><polygon points="816,2 840,-10 840,0 816,12" fill="#d9bf98" stroke="#5a3a22" stroke-width=".8"/><polygon points="816,12 840,0 840,10 816,22" fill="#c49a66" stroke="#5a3a22" stroke-width=".8"/><polygon points="816,22 840,10 840,20 816,32" fill="#d3b48a" stroke="#5a3a22" stroke-width=".8"/><polygon points="816,32 840,20 840,30 816,42" fill="#c49a66" stroke="#5a3a22" stroke-width=".8"/><polygon points="816,42 840,30 840,40 816,52" fill="#be925d" stroke="#5a3a22" stroke-width=".8"/><polygon points="816,52 840,40 840,50 816,62" fill="#d3b48a" stroke="#5a3a22" stroke-width=".8"/><polygon points="816,62 840,50 840,60 816,72" fill="#be925d" stroke="#5a3a22" stroke-width=".8"/><polygon points="816,72 840,60 840,70 816,82" fill="#c49a66" stroke="#5a3a22" stroke-width=".8"/><polygon points="816,82 840,70 840,80 816,92" fill="#dcc6a3" stroke="#5a3a22" stroke-width=".8"/><polygon points="840,-20 864,-8 864,2 840,-10" fill="#c8a273" stroke="#5a3a22" stroke-width=".8"/><polygon points="840,-10 864,2 864,12 840,0" fill="#cfae80" stroke="#5a3a22" stroke-width=".8"/><polygon points="840,0 864,12 864,22 840,10" fill="#d3b48a" stroke="#5a3a22" stroke-width=".8"/><polygon points="840,10 864,22 864,32 840,20" fill="#d9bf98" stroke="#5a3a22" stroke-width=".8"/><polygon points="840,20 864,32 864,42 840,30" fill="#c49a66" stroke="#5a3a22" stroke-width=".8"/><polygon points="840,30 864,42 864,52 840,40" fill="#be925d" stroke="#5a3a22" stroke-width=".8"/><polygon points="840,40 864,52 864,62 840,50" fill="#cfae80" stroke="#5a3a22" stroke-width=".8"/><polygon points="840,50 864,62 864,72 840,60" fill="#d3b48a" stroke="#5a3a22" stroke-width=".8"/><polygon points="840,60 864,72 864,82 840,70" fill="#d9bf98" stroke="#5a3a22" stroke-width=".8"/><polygon points="840,70 864,82 864,92 840,80" fill="#cfae80" stroke="#5a3a22" stroke-width=".8"/><polygon points="864,-8 888,-20 888,-10 864,2" fill="#d3b48a" stroke="#5a3a22" stroke-width=".8"/><polygon points="864,2 888,-10 888,0 864,12" fill="#cfae80" stroke="#5a3a22" stroke-width=".8"/><polygon points="864,12 888,0 888,10 864,22" fill="#b98b57" stroke="#5a3a22" stroke-width=".8"/><polygon points="864,22 888,10 888,20 864,32" fill="#cfae80" stroke="#5a3a22" stroke-width=".8"/><polygon points="864,32 888,20 888,30 864,42" fill="#d3b48a" stroke="#5a3a22" stroke-width=".8"/><polygon points="864,42 888,30 888,40 864,52" fill="#cfae80" stroke="#5a3a22" stroke-width=".8"/><polygon points="864,52 888,40 888,50 864,62" fill="#dcc6a3" stroke="#5a3a22" stroke-width=".8"/><polygon points="864,62 888,50 888,60 864,72" fill="#d9bf98" stroke="#5a3a22" stroke-width=".8"/><polygon points="864,72 888,60 888,70 864,82" fill="#c8a273" stroke="#5a3a22" stroke-width=".8"/><polygon points="864,82 888,70 888,80 864,92" fill="#be925d" stroke="#5a3a22" stroke-width=".8"/><polygon points="888,-20 912,-8 912,2 888,-10" fill="#d3b48a" stroke="#5a3a22" stroke-width=".8"/><polygon points="888,-10 912,2 912,12 888,0" fill="#c49a66" stroke="#5a3a22" stroke-width=".8"/><polygon points="888,0 912,12 912,22 888,10" fill="#d9bf98" stroke="#5a3a22" stroke-width=".8"/><polygon points="888,10 912,22 912,32 888,20" fill="#b98b57" stroke="#5a3a22" stroke-width=".8"/><polygon points="888,20 912,32 912,42 888,30" fill="#cfae80" stroke="#5a3a22" stroke-width=".8"/><polygon points="888,30 912,42 912,52 888,40" fill="#c49a66" stroke="#5a3a22" stroke-width=".8"/><polygon points="888,40 912,52 912,62 888,50" fill="#d3b48a" stroke="#5a3a22" stroke-width=".8"/><polygon points="888,50 912,62 912,72 888,60" fill="#d9bf98" stroke="#5a3a22" stroke-width=".8"/><polygon points="888,60 912,72 912,82 888,70" fill="#c49a66" stroke="#5a3a22" stroke-width=".8"/><polygon points="888,70 912,82 912,92 888,80" fill="#b98b57" stroke="#5a3a22" stroke-width=".8"/><polygon points="912,-8 936,-20 936,-10 912,2" fill="#d3b48a" stroke="#5a3a22" stroke-width=".8"/><polygon points="912,2 936,-10 936,0 912,12" fill="#d3b48a" stroke="#5a3a22" stroke-width=".8"/><polygon points="912,12 936,0 936,10 912,22" fill="#b98b57" stroke="#5a3a22" stroke-width=".8"/><polygon points="912,22 936,10 936,20 912,32" fill="#d3b48a" stroke="#5a3a22" stroke-width=".8"/><polygon points="912,32 936,20 936,30 912,42" fill="#dcc6a3" stroke="#5a3a22" stroke-width=".8"/><polygon points="912,42 936,30 936,40 912,52" fill="#c49a66" stroke="#5a3a22" stroke-width=".8"/><polygon points="912,52 936,40 936,50 912,62" fill="#d3b48a" stroke="#5a3a22" stroke-width=".8"/><polygon points="912,62 936,50 936,60 912,72" fill="#c8a273" stroke="#5a3a22" stroke-width=".8"/><polygon points="912,72 936,60 936,70 912,82" fill="#d9bf98" stroke="#5a3a22" stroke-width=".8"/><polygon points="912,82 936,70 936,80 912,92" fill="#d3b48a" stroke="#5a3a22" stroke-width=".8"/><polygon points="936,-20 960,-8 960,2 936,-10" fill="#d9bf98" stroke="#5a3a22" stroke-width=".8"/><polygon points="936,-10 960,2 960,12 936,0" fill="#d9bf98" stroke="#5a3a22" stroke-width=".8"/><polygon points="936,0 960,12 960,22 936,10" fill="#d9bf98" stroke="#5a3a22" stroke-width=".8"/><polygon points="936,10 960,22 960,32 936,20" fill="#b98b57" stroke="#5a3a22" stroke-width=".8"/><polygon points="936,20 960,32 960,42 936,30" fill="#dcc6a3" stroke="#5a3a22" stroke-width=".8"/><polygon points="936,30 960,42 960,52 936,40" fill="#b98b57" stroke="#5a3a22" stroke-width=".8"/><polygon points="936,40 960,52 960,62 936,50" fill="#dcc6a3" stroke="#5a3a22" stroke-width=".8"/><polygon points="936,50 960,62 960,72 936,60" fill="#cfae80" stroke="#5a3a22" stroke-width=".8"/><polygon points="936,60 960,72 960,82 936,70" fill="#be925d" stroke="#5a3a22" stroke-width=".8"/><polygon points="936,70 960,82 960,92 936,80" fill="#dcc6a3" stroke="#5a3a22" stroke-width=".8"/></svg>